<svg xmlns="http://www.w3.org/2000/svg" viewBox="0 0 512 512"><rect width="512" height="512" fill="#172033"/><g stroke="#020617" stroke-width="6"><path fill="#1e293b" d="M8 12h156l28 28v128l-24 24H8z"/><path fill="#263449" d="M204 12h300v132l-38 38H204z"/><path fill="#111827" d="M8 216h210l30 30v118l-32 32H8z"/><path fill="#1f2a3b" d="M272 216h232v178l-30 30H272z"/><path fill="#334155" d="M44 430h180v64H44z"/><path fill="#0f172a" d="M268 438h218v56H268z"/></g><g fill="none" stroke="#22d3ee" stroke-width="3" opacity=".72"><path d="M54 62h66l16 16v42M250 62h166M330 252h106l24 24M72 276h84M306 456h120"/><path d="M190 18v178M250 220v170" opacity=".4"/></g><g fill="#020617" opacity=".6"><circle cx="150" cy="38" r="7"/><circle cx="474" cy="38" r="7"/><circle cx="48" cy="242" r="7"/><circle cx="472" cy="468" r="7"/></g></svg>